<svg width="16" height="16" viewBox="0 0 16 16" fill="none" xmlns="http://www.w3.org/2000/svg">
<mask id="mask0_2912_54752" style="mask-type:alpha" maskUnits="userSpaceOnUse" x="0" y="0" width="16" height="16">
<path fill-rule="evenodd" clip-rule="evenodd" d="M14.092 8.42433C14.3263 8.19001 14.3263 7.81012 14.092 7.5758L9.42531 2.90913C9.191 2.67482 8.8111 2.67482 8.57678 2.90913C8.34247 3.14345 8.34247 3.52335 8.57678 3.75766L12.2192 7.40006H2.33438C2.003 7.40006 1.73438 7.66869 1.73438 8.00006C1.73438 8.33144 2.003 8.60007 2.33438 8.60007H12.2192L8.57678 12.2425C8.34247 12.4768 8.34247 12.8567 8.57678 13.091C8.8111 13.3253 9.191 13.3253 9.42531 13.091L14.092 8.42433Z" fill="#171719"/>
</mask>
<g mask="url(#mask0_2912_54752)">
<rect width="16" height="16" fill="#B81716"/>
</g>
</svg>
