<svg width="66" height="26" viewBox="0 0 66 26" fill="none" xmlns="http://www.w3.org/2000/svg">
<g clip-path="url(#clip0_5853_13475)">
<path d="M43.0274 15.8504V18.6236H48.6241V20.5616H43.0274V23.6022H48.6241V25.5732H40.889V13.8787H48.6241V15.8504H43.0274ZM36.0875 25.824C38.0255 25.824 39.7463 24.454 39.7463 21.7311V13.8787H37.6581V21.7311C37.6581 23.3182 36.9394 23.8695 36.0875 23.8695C35.2357 23.8695 34.5004 23.3182 34.5004 21.7311V13.8787H32.4122V21.7311C32.4122 24.4546 34.0993 25.824 36.0875 25.824ZM28.758 25.4618C29.315 25.3173 29.8161 25.1219 30.2617 24.8774C30.7073 24.6323 31.0639 24.3592 31.3307 24.0586L30.2617 22.3378C30.0166 22.5829 29.7435 22.8 29.443 22.9891C29.1533 23.1674 28.8363 23.3068 28.4906 23.4068C28.1455 23.5073 27.789 23.557 27.4211 23.557C26.8532 23.557 26.3298 23.4679 25.8505 23.2896C25.3826 23.1005 24.9764 22.8331 24.6307 22.4875C24.2965 22.1424 24.0348 21.7299 23.8457 21.2511C23.6675 20.7724 23.5783 20.2376 23.5783 19.6474C23.5783 19.0572 23.6732 18.5448 23.8623 18.0769C24.0514 17.5981 24.3079 17.1856 24.6307 16.8405C24.9649 16.4954 25.3546 16.228 25.8002 16.0384C26.2567 15.8492 26.7412 15.7544 27.2537 15.7544C27.5988 15.7544 27.933 15.8104 28.2558 15.9212C28.59 16.0212 28.9071 16.1772 29.2082 16.3892C29.5201 16.5897 29.8206 16.8405 30.1103 17.141L31.4969 15.6207C31.1964 15.2311 30.8233 14.8911 30.3777 14.6015C29.9321 14.301 29.4419 14.0667 28.9077 13.8999C28.3729 13.7331 27.8216 13.6491 27.2537 13.6491C26.4184 13.6491 25.6443 13.7993 24.9312 14.1004C24.2182 14.4009 23.5949 14.8243 23.0601 15.3699C22.5254 15.9155 22.1077 16.5508 21.8072 17.2747C21.5067 17.9986 21.3564 18.7842 21.3564 19.6303C21.3564 20.4764 21.4958 21.3231 21.7741 22.0693C22.0637 22.8046 22.4648 23.445 22.9767 23.9907C23.4892 24.5254 24.096 24.9373 24.7975 25.227C25.4991 25.5167 26.2733 25.6612 27.12 25.6612C27.6656 25.6612 28.2112 25.5944 28.7574 25.4607L28.758 25.4618ZM66.129 2.48078V0.509701H58.3933V12.2042H66.129V10.2331H60.5317V7.19251H66.129V5.25457H60.5317V2.48078H66.129ZM54.1974 11.926C54.8436 11.67 55.4058 11.3135 55.8851 10.857C56.3753 10.4005 56.7541 9.86003 57.0209 9.23672C57.2883 8.60197 57.422 7.90038 57.422 7.13138C57.422 7.03139 57.4163 6.91427 57.4054 6.78058C57.4054 6.63604 57.3997 6.49092 57.3889 6.34637C57.3774 6.1904 57.3609 6.051 57.3386 5.92873H52.0424V7.86667H55.5006L55.2001 7.51588V7.88324C55.2001 8.21747 55.1224 8.52941 54.9664 8.81908C54.8219 9.10874 54.6099 9.36469 54.3317 9.58751C54.0535 9.7989 53.7358 9.9663 53.3793 10.0886C53.0228 10.2108 52.6389 10.2725 52.2264 10.2725C51.6807 10.2725 51.1626 10.1725 50.6724 9.97201C50.1936 9.76062 49.7702 9.47096 49.4029 9.10303C49.0355 8.73566 48.7458 8.3066 48.5339 7.8164C48.3333 7.3262 48.2334 6.80858 48.2334 6.26239C48.2334 5.7162 48.3339 5.17115 48.5339 4.69181C48.7344 4.21304 49.0069 3.7954 49.3526 3.43889C49.7091 3.08239 50.121 2.80415 50.5889 2.60361C51.0677 2.40308 51.5859 2.3031 52.1424 2.3031C52.5212 2.3031 52.8885 2.35851 53.245 2.46992C53.6015 2.58133 53.9409 2.7373 54.2643 2.93784C54.5985 3.13838 54.9213 3.38919 55.2333 3.68971L56.6033 2.25282C56.3028 1.87403 55.924 1.53466 55.4669 1.23357C55.0104 0.933054 54.498 0.69881 53.9301 0.531983C53.3622 0.365156 52.772 0.281171 52.1589 0.281171C51.29 0.281171 50.477 0.43143 49.72 0.732519C48.9738 1.03304 48.3219 1.45639 47.7654 2.00201C47.2084 2.53677 46.7742 3.17151 46.4622 3.90681C46.1617 4.63068 46.0109 5.41625 46.0109 6.26239C46.0109 7.10852 46.1612 7.91638 46.4622 8.65168C46.7628 9.37555 47.1861 10.0103 47.7317 10.5565C48.2888 11.1021 48.9401 11.5312 49.6862 11.8431C50.4324 12.1436 51.2454 12.2945 52.1252 12.2945C52.8714 12.2945 53.5621 12.1722 54.1969 11.9271L54.1974 11.926ZM41.3809 0.281171C39.3927 0.281171 37.7055 1.63464 37.7055 4.35759V12.2265H46.1257V10.3217H45.0396V4.35701C45.0396 1.63407 43.3188 0.280599 41.3809 0.280599V0.281171ZM41.4951 2.21911C42.347 2.21911 43.0657 2.78701 43.0657 4.35759V10.3222H39.908V4.35759C39.908 2.78701 40.6262 2.21911 41.4951 2.21911ZM29.5436 2.44764H32.4173V12.2042H34.5055V2.44764H37.3622V0.509701H29.5436V2.44764ZM29.1436 9.04532C29.1436 5.63736 24.1982 5.20258 24.1982 3.33148C24.1982 2.62989 24.733 2.21225 25.418 2.21225C26.203 2.21225 26.788 2.68017 26.972 3.73255L28.9265 3.14809C28.5757 1.36041 27.3394 0.224609 25.3512 0.224609C23.5303 0.224609 22.0935 1.36041 22.0935 3.28178C22.0935 6.55605 27.0389 7.05768 27.0389 9.06246C27.0389 9.96459 26.3373 10.4828 25.5186 10.4828C24.5496 10.4828 23.848 9.84803 23.6475 8.74537L21.6427 9.34698C22.0603 11.1678 23.4138 12.4544 25.5688 12.4544C27.5571 12.4544 29.1442 11.1849 29.1442 9.04646L29.1436 9.04532Z" fill="black"/>
<path d="M15.4871 21.7393V8.961C15.4871 3.12547 11.8071 0.226562 7.66102 0.226562C3.5149 0.226562 -0.202148 3.12547 -0.202148 8.961V25.822H17.8352V21.7404L15.4871 21.7393ZM4.26505 19.6911C8.2792 15.4678 8.43574 8.18114 8.09066 3.14376L9.86234 21.7393L4.26505 19.6911Z" fill="url(#paint0_linear_5853_13475)"/>
</g>
<defs>
<linearGradient id="paint0_linear_5853_13475" x1="-1.66703" y1="2.41303" x2="16.3709" y2="28.1736" gradientUnits="userSpaceOnUse">
<stop stop-color="#750012"/>
<stop offset="0.25" stop-color="#B81716"/>
<stop offset="0.48" stop-color="#EB1F20"/>
<stop offset="0.72" stop-color="#ED5700"/>
<stop offset="0.909497" stop-color="#FF9202"/>
</linearGradient>
<clipPath id="clip0_5853_13475">
<rect width="65.92" height="25.6" fill="white" transform="translate(0 0.199219)"/>
</clipPath>
</defs>
</svg>
