<svg width="40" height="40" viewBox="0 0 40 40" fill="none" xmlns="http://www.w3.org/2000/svg">
<mask id="mask0_2869_59262" style="mask-type:alpha" maskUnits="userSpaceOnUse" x="8" y="8" width="24" height="24">
<path d="M26.4797 12.5007C26.3743 12.2937 26.206 12.1255 25.999 12.02L25.999 12.02C25.904 11.9716 25.7769 11.9376 25.5522 11.9192C25.3221 11.9004 25.0258 11.9001 24.5996 11.9001H15.3996C14.9734 11.9001 14.6771 11.9004 14.447 11.9192C14.2223 11.9376 14.0953 11.9716 14.0002 12.02L14.0002 12.02C13.7932 12.1255 13.625 12.2937 13.5195 12.5007C13.4711 12.5958 13.4371 12.7228 13.4187 12.9475C13.3999 13.1776 13.3996 13.4739 13.3996 13.9001V27.9008V28.7893L14.1591 28.3282L19.792 24.9082C19.9196 24.8307 20.0796 24.8307 20.2072 24.9082L25.8401 28.3282L26.5996 28.7893V27.9008V13.9001C26.5996 13.4739 26.5993 13.1776 26.5805 12.9475C26.5622 12.7228 26.5282 12.5958 26.4797 12.5007ZM26.4797 12.5007L26.0342 12.7277M26.4797 12.5007C26.4797 12.5007 26.4797 12.5007 26.4797 12.5007L26.0342 12.7277M26.0342 12.7277C26.0405 12.7401 26.0663 12.7937 26.0822 12.9882C26.0989 13.1932 26.0996 13.4652 26.0996 13.9001V27.3158L26.3591 27.4734L26.0996 27.9008H25.5996V27.5972L20.4667 24.4808C20.1797 24.3065 19.8195 24.3065 19.5325 24.4808L14.3996 27.5972V27.9008H13.8996L13.6401 27.4734L13.8996 27.3158V13.9001C13.8996 13.4652 13.9003 13.1932 13.9171 12.9882C13.9329 12.7937 13.9587 12.7401 13.965 12.7277C14.0225 12.6148 14.1143 12.523 14.2272 12.4655C14.2396 12.4592 14.2932 12.4334 14.4877 12.4175C14.6927 12.4008 14.9647 12.4001 15.3996 12.4001H24.5996C25.0345 12.4001 25.3065 12.4008 25.5115 12.4175C25.706 12.4334 25.7596 12.4592 25.772 12.4655C25.8849 12.523 25.9767 12.6148 26.0342 12.7277ZM24.6329 11.1001H24.633C25.0313 11.1001 25.355 11.1004 25.6174 11.1219C25.8921 11.1443 26.1359 11.1919 26.3622 11.3072C26.7197 11.4893 27.0104 11.78 27.1925 12.1375C27.3078 12.3638 27.3554 12.6076 27.3778 12.8823C27.3993 13.1448 27.3996 13.4685 27.3996 13.8667L27.3996 29.5001C27.3996 29.6446 27.3217 29.7778 27.1958 29.8487C27.0699 29.9196 26.9155 29.917 26.792 29.842L20.2591 25.8756L19.9996 25.7181L19.7401 25.8756L13.2072 29.842C13.0837 29.917 12.9294 29.9196 12.8034 29.8487C12.6775 29.7778 12.5996 29.6446 12.5996 29.5001V13.9001L12.5996 13.8667C12.5996 13.4685 12.5999 13.1448 12.6214 12.8823C12.6438 12.6076 12.6914 12.3638 12.8067 12.1375C12.9889 11.78 13.2795 11.4893 13.637 11.3072C13.8634 11.1919 14.1072 11.1443 14.3818 11.1219C14.6443 11.1004 14.968 11.1001 15.3663 11.1001L15.3996 11.1001L24.6329 11.1001Z" fill="#171719" stroke="#171719"/>
</mask>
<g mask="url(#mask0_2869_59262)">
<rect x="8" y="8" width="24" height="24" fill="#B81716"/>
</g>
</svg>
