<svg width="16" height="16" viewBox="0 0 16 16" fill="none" xmlns="http://www.w3.org/2000/svg">
<mask id="mask0_2845_65900" style="mask-type:alpha" maskUnits="userSpaceOnUse" x="0" y="0" width="16" height="16">
<path d="M12 9.33332H10V11.3333H12V9.33332Z" fill="#171719"/>
<path fill-rule="evenodd" clip-rule="evenodd" d="M10.7999 2.73332H4.5333V0.666656H3.3333V2.73385C3.17087 2.73495 3.02354 2.73838 2.89425 2.74894C2.69039 2.7656 2.47916 2.80294 2.27352 2.90771C1.97246 3.06111 1.72769 3.30588 1.57429 3.60694C1.46952 3.81257 1.43218 4.02381 1.41552 4.22767C1.39988 4.4191 1.39989 4.6501 1.3999 4.9111V11.7555C1.39989 12.0166 1.39988 12.2475 1.41552 12.439C1.43218 12.6428 1.46952 12.8541 1.57429 13.0597C1.72769 13.3608 1.97246 13.6055 2.27352 13.7589C2.47916 13.8637 2.69039 13.901 2.89425 13.9177C3.08567 13.9333 3.31664 13.9333 3.57761 13.9333H12.4221C12.6831 13.9333 12.9141 13.9333 13.1056 13.9177C13.3094 13.901 13.5207 13.8637 13.7263 13.7589C14.0274 13.6055 14.2721 13.3608 14.4255 13.0597C14.5303 12.8541 14.5676 12.6428 14.5843 12.439C14.5999 12.2475 14.5999 12.0166 14.5999 11.7555V4.9111C14.5999 4.65011 14.5999 4.41909 14.5843 4.22767C14.5676 4.02381 14.5303 3.81257 14.4255 3.60694C14.2721 3.30588 14.0274 3.06111 13.7263 2.90771C13.5207 2.80294 13.3094 2.7656 13.1056 2.74894C12.9141 2.7333 12.6831 2.73331 12.4221 2.73332L11.9999 2.73332V0.666656H10.7999V2.73332ZM2.99196 3.94495C2.86232 3.95555 2.82658 3.9727 2.81831 3.97692C2.74304 4.01527 2.68185 4.07646 2.6435 4.15173C2.63928 4.16 2.62213 4.19574 2.61154 4.32538C2.60037 4.46204 2.5999 4.6434 2.5999 4.93332V6.13339H13.3999V4.93332C13.3999 4.6434 13.3994 4.46204 13.3883 4.32538C13.3777 4.19574 13.3605 4.16 13.3563 4.15173C13.318 4.07646 13.2568 4.01527 13.1815 3.97692C13.1732 3.9727 13.1375 3.95555 13.0078 3.94495C12.8712 3.93379 12.6898 3.93332 12.3999 3.93332H3.5999C3.30998 3.93332 3.12862 3.93379 2.99196 3.94495ZM2.5999 11.7333V7.33339H13.3999V11.7333C13.3999 12.0232 13.3994 12.2046 13.3883 12.3413C13.3777 12.4709 13.3605 12.5066 13.3563 12.5149C13.318 12.5902 13.2568 12.6514 13.1815 12.6897C13.1732 12.6939 13.1375 12.7111 13.0078 12.7217C12.8712 12.7329 12.6898 12.7333 12.3999 12.7333H3.5999C3.30998 12.7333 3.12862 12.7329 2.99196 12.7217C2.86232 12.7111 2.82658 12.6939 2.81831 12.6897C2.74304 12.6514 2.68185 12.5902 2.6435 12.5149C2.63928 12.5066 2.62213 12.4709 2.61154 12.3413C2.60037 12.2046 2.5999 12.0232 2.5999 11.7333Z" fill="#171719"/>
</mask>
<g mask="url(#mask0_2845_65900)">
<rect width="16" height="16" fill="#171719"/>
</g>
</svg>
