<svg width="16" height="17" viewBox="0 0 16 17" fill="none" xmlns="http://www.w3.org/2000/svg">
<mask id="mask0_2551_59751" style="mask-type:alpha" maskUnits="userSpaceOnUse" x="0" y="0" width="16" height="17">
<path d="M2.59131 4.37917L2.59132 4.37916C2.68222 4.33285 2.79139 4.30742 2.95125 4.29436L2.99061 4.77613L2.95125 4.29436C3.11308 4.28114 3.31865 4.28107 3.5999 4.28107H12.3999C12.6812 4.28107 12.8867 4.28114 13.0486 4.29436L13.0078 4.7927L13.0486 4.29436C13.2084 4.30742 13.3176 4.33285 13.4085 4.37916L13.4085 4.37916C13.5778 4.46545 13.7155 4.60313 13.8018 4.77248M2.59131 4.37917L2.198 4.77248M2.59131 4.37917C2.42197 4.46545 2.28428 4.60313 2.198 4.77248M2.59131 4.37917L2.198 4.77248M13.8018 4.77248L13.3563 4.99947L13.8018 4.77247C13.8018 4.77247 13.8018 4.77248 13.8018 4.77248ZM13.8018 4.77248C13.8481 4.86339 13.8736 4.97256 13.8866 5.13241C13.8998 5.29425 13.8999 5.49982 13.8999 5.78107V6.98114V7.48114H13.3999H2.5999H2.0999V6.98114V5.78107C2.0999 5.49981 2.09997 5.29425 2.1132 5.13242C2.12626 4.97256 2.15168 4.86338 2.198 4.77248M2.0999 8.18114V7.68114H2.5999H13.3999H13.8999V8.18114V12.5811C13.8999 12.8623 13.8998 13.0679 13.8866 13.2297C13.8736 13.3896 13.8481 13.4988 13.8018 13.5897C13.7155 13.759 13.5778 13.8967 13.4085 13.983M2.0999 8.18114L13.1815 13.5375M2.0999 8.18114V12.5811C2.0999 12.8623 2.09997 13.0679 2.1132 13.2297C2.12626 13.3896 2.15168 13.4988 2.19799 13.5897L2.6435 13.3627L2.198 13.5897C2.28428 13.759 2.42196 13.8967 2.59131 13.983L2.0999 8.18114ZM13.4085 13.983L13.1815 13.5375M13.4085 13.983C13.4085 13.983 13.4085 13.983 13.4085 13.983L13.1815 13.5375M13.4085 13.983C13.3176 14.0293 13.2084 14.0547 13.0486 14.0678L13.0112 13.6107L13.0486 14.0678C12.8867 14.081 12.6812 14.0811 12.3999 14.0811H3.5999C3.31865 14.0811 3.11308 14.081 2.95125 14.0678L2.99196 13.5694C3.12862 13.5806 3.30998 13.5811 3.5999 13.5811H12.3999C12.6898 13.5811 12.8712 13.5806 13.0078 13.5694C13.1375 13.5588 13.1732 13.5417 13.1815 13.5375M4.0333 3.58107V4.08107H4.5333H10.7999H11.2999V3.58107V2.0144H11.4999V3.58107V4.08107L11.9999 4.08107L12.4221 4.08107H12.4222C12.6899 4.08106 12.8981 4.08141 13.0648 4.09503C13.2376 4.10914 13.3758 4.13804 13.4993 4.20096L13.7263 3.75546L13.4993 4.20096C13.7063 4.30642 13.8746 4.4747 13.98 4.68168C14.0429 4.80518 14.0718 4.94337 14.086 5.11613C14.0996 5.28283 14.0999 5.49106 14.0999 5.75882V5.75885V12.6033V12.6033C14.0999 12.8711 14.0996 13.0793 14.086 13.246C14.0718 13.4188 14.0429 13.557 13.98 13.6805C13.8746 13.8874 13.7063 14.0557 13.4993 14.1612C13.3758 14.2241 13.2376 14.253 13.0649 14.2671C12.8982 14.2807 12.6899 14.2811 12.4222 14.2811H12.4221H3.57761H3.57759C3.30984 14.2811 3.10166 14.2807 2.93496 14.2671C2.7622 14.253 2.62402 14.2241 2.50051 14.1612C2.29354 14.0557 2.12526 13.8874 2.0198 13.6805L1.57429 13.9075L2.0198 13.6805C1.95687 13.557 1.92797 13.4188 1.91386 13.246C1.90024 13.0793 1.89989 12.8711 1.8999 12.6033V12.6033V5.75885V5.75882C1.89989 5.49104 1.90024 5.28284 1.91386 5.11613C1.92797 4.94337 1.95687 4.80518 2.0198 4.68168C2.12526 4.4747 2.29354 4.30642 2.50051 4.20096C2.62402 4.13804 2.7622 4.10914 2.93496 4.09503C3.04488 4.08605 3.17691 4.08267 3.33671 4.08158L3.8333 4.0782V3.58159V2.0144H4.0333V3.58107ZM10.5 10.6811H11.5V11.6811H10.5V10.6811Z" fill="#171719" stroke="#171719"/>
</mask>
<g mask="url(#mask0_2551_59751)">
<rect y="0.847656" width="16" height="16" fill="#37383C" fillOpacity="0.61"/>
</g>
</svg>
