<svg width="24" height="24" viewBox="0 0 24 24" fill="none" xmlns="http://www.w3.org/2000/svg">
<g opacity="0.16">
<mask id="mask0_2579_26252" style="mask-type:alpha" maskUnits="userSpaceOnUse" x="0" y="0" width="24" height="24">
<path d="M16.1999 4.6H16.6999V4.1V1.5H17.4999V4.1V4.6L17.9999 4.6L18.6332 4.6C19.0315 4.59998 19.3552 4.60032 19.6176 4.62176C19.8923 4.64421 20.1361 4.69177 20.3624 4.80709C20.7199 4.98925 21.0106 5.27991 21.1928 5.63742C21.3081 5.86374 21.3556 6.10754 21.3781 6.38223C21.3995 6.64464 21.3999 6.96838 21.3999 7.36664V17.6333C21.3999 18.0316 21.3995 18.3553 21.3781 18.6178C21.3556 18.8925 21.3081 19.1363 21.1928 19.3626C21.0106 19.7201 20.7199 20.0108 20.3624 20.1929C20.1361 20.3082 19.8923 20.3558 19.6176 20.3782C19.3552 20.3997 19.0315 20.4 18.6332 20.4H5.36642C4.96816 20.4 4.64449 20.3997 4.38209 20.3782C4.1074 20.3558 3.86359 20.3082 3.63727 20.1929C3.27976 20.0108 2.9891 19.7201 2.80694 19.3626C2.69163 19.1363 2.64406 18.8925 2.62162 18.6178C2.60018 18.3553 2.59983 18.0316 2.59985 17.6334V7.36667V7.36664C2.59983 6.96836 2.60018 6.64466 2.62162 6.38223C2.64406 6.10754 2.69163 5.86374 2.80694 5.63742C2.9891 5.27991 3.27976 4.98925 3.63727 4.80709C3.86359 4.69177 4.1074 4.64421 4.38208 4.62176C4.55664 4.6075 4.76234 4.60241 5.00336 4.60077L5.49995 4.59739V4.10078V1.5H6.29995V4.1V4.6H6.79995H16.1999ZM4.00047 5.51989L4.00046 5.51989C3.79349 5.62535 3.62521 5.79363 3.51975 6.00061C3.47132 6.09565 3.43732 6.22269 3.41896 6.44738C3.40016 6.67754 3.39985 6.97378 3.39985 7.4V9.2001V9.7001H3.89985H20.0999H20.5999V9.2001V7.4C20.5999 6.97378 20.5996 6.67753 20.5807 6.44737C20.5624 6.2227 20.5284 6.09565 20.48 6.0006C20.3745 5.79363 20.2062 5.62535 19.9992 5.51989L19.9992 5.51989C19.9042 5.47147 19.7772 5.43747 19.5525 5.41911C19.3223 5.4003 19.0261 5.4 18.5999 5.4H5.39985C4.97364 5.4 4.67739 5.4003 4.44723 5.41911L4.48795 5.91745L4.44723 5.41911C4.22254 5.43747 4.09551 5.47147 4.00047 5.51989ZM3.89985 10.5001H3.39985V11.0001V17.6C3.39985 18.0262 3.40016 18.3225 3.41896 18.5526C3.43732 18.7773 3.47132 18.9043 3.51974 18.9994L3.96267 18.7737L3.51975 18.9994C3.62521 19.2064 3.79349 19.3746 4.00046 19.4801C4.0955 19.5285 4.22254 19.5625 4.44723 19.5809C4.67739 19.5997 4.97363 19.6 5.39985 19.6H18.5999C19.0261 19.6 19.3223 19.5997 19.5525 19.5809C19.7772 19.5625 19.9042 19.5285 19.9992 19.4801C20.2062 19.3746 20.3745 19.2064 20.48 18.9994C20.5284 18.9043 20.5624 18.7773 20.5807 18.5526C20.5996 18.3225 20.5999 18.0262 20.5999 17.6V11.0001V10.5001H20.0999H3.89985ZM15.5 16.5V14.5H17.5V16.5H15.5Z" fill="#171719" stroke="#171719"/>
</mask>
<g mask="url(#mask0_2579_26252)">
<rect width="24" height="24" fill="#171719"/>
</g>
</g>
</svg>
