<svg width="16" height="16" viewBox="0 0 16 16" fill="none" xmlns="http://www.w3.org/2000/svg">
<mask id="mask0_2815_25675" style="mask-type:alpha" maskUnits="userSpaceOnUse" x="-1" y="0" width="17" height="16">
<path d="M2.59107 3.53142L2.59108 3.53141C2.68198 3.4851 2.79114 3.45968 2.951 3.44661L2.99037 3.92839L2.95101 3.44661C3.11284 3.43339 3.3184 3.43332 3.59966 3.43332H12.3997C12.6809 3.43332 12.8865 3.43339 13.0483 3.44661L13.0076 3.94495L13.0483 3.44661C13.2082 3.45968 13.3173 3.4851 13.4082 3.53141L13.4083 3.53142C13.5776 3.6177 13.7153 3.75539 13.8016 3.92473M2.59107 3.53142L2.19775 3.92473M2.59107 3.53142C2.42172 3.6177 2.28404 3.75539 2.19775 3.92473M2.59107 3.53142L2.19775 3.92473M13.8016 3.92473L13.3561 4.15173L13.8016 3.92472C13.8016 3.92473 13.8016 3.92473 13.8016 3.92473ZM13.8016 3.92473C13.8479 4.01564 13.8733 4.12482 13.8864 4.28467C13.8996 4.4465 13.8997 4.65207 13.8997 4.93332V6.13339V6.63339H13.3997H2.59966H2.09966V6.13339V4.93332C2.09966 4.65207 2.09973 4.4465 2.11295 4.28467C2.12601 4.12481 2.15143 4.01564 2.19775 3.92473M2.09966 7.33339V6.83339H2.59966H13.3997H13.8997V7.33339V11.7333C13.8997 12.0146 13.8996 12.2201 13.8864 12.382C13.8733 12.5418 13.8479 12.651 13.8016 12.7419C13.7153 12.9113 13.5776 13.0489 13.4082 13.1352M2.09966 7.33339L13.1813 12.6897M2.09966 7.33339V11.7333C2.09966 12.0146 2.09973 12.2201 2.11295 12.382C2.12601 12.5418 2.15144 12.651 2.19775 12.7419L2.64326 12.5149L2.19775 12.7419C2.28404 12.9113 2.42172 13.0489 2.59106 13.1352L2.09966 7.33339ZM13.4082 13.1352L13.1813 12.6897M13.4082 13.1352C13.4082 13.1352 13.4083 13.1352 13.4083 13.1352L13.1813 12.6897M13.4082 13.1352C13.3173 13.1815 13.2082 13.207 13.0483 13.22L13.011 12.763L13.0483 13.22C12.8865 13.2333 12.6809 13.2333 12.3997 13.2333H3.59966C3.3184 13.2333 3.11284 13.2333 2.95101 13.22L2.99172 12.7217C3.12837 12.7329 3.30973 12.7333 3.59966 12.7333H12.3997C12.6896 12.7333 12.871 12.7329 13.0076 12.7217C13.1372 12.7111 13.173 12.6939 13.1813 12.6897M4.03306 2.73332V3.23332H4.53306H10.7997H11.2997V2.73332V1.16666H11.4997V2.73332V3.23332L11.9997 3.23332L12.4219 3.23332H12.4219C12.6897 3.23331 12.8979 3.23366 13.0646 3.24728C13.2374 3.26139 13.3756 3.29029 13.4991 3.35322L13.726 2.90771L13.4991 3.35322C13.706 3.45868 13.8743 3.62696 13.9798 3.83393C14.0427 3.95744 14.0716 4.09562 14.0857 4.26838C14.0993 4.43508 14.0997 4.64331 14.0997 4.91107V4.9111V11.7555V11.7556C14.0997 12.0234 14.0993 12.2316 14.0857 12.3983C14.0716 12.571 14.0427 12.7092 13.9798 12.8327C13.8743 13.0397 13.706 13.208 13.4991 13.3134C13.3756 13.3764 13.2374 13.4053 13.0646 13.4194C12.8979 13.433 12.6897 13.4333 12.4219 13.4333H12.4219H3.57737H3.57735C3.3096 13.4333 3.10141 13.433 2.93472 13.4194C2.76196 13.4053 2.62377 13.3764 2.50027 13.3134C2.29329 13.208 2.12501 13.0397 2.01955 12.8327L1.57405 13.0597L2.01955 12.8327C1.95662 12.7092 1.92773 12.571 1.91362 12.3983C1.89999 12.2316 1.89965 12.0234 1.89966 11.7556V11.7555V4.9111V4.91108C1.89965 4.6433 1.89999 4.43509 1.91362 4.26838C1.92773 4.09562 1.95662 3.95744 2.01955 3.83393C2.12501 3.62696 2.29329 3.45868 2.50027 3.35322C2.62377 3.29029 2.76196 3.26139 2.93472 3.24728C3.04463 3.2383 3.17666 3.23492 3.33646 3.23383L3.83306 3.23045V2.73385V1.16666H4.03306V2.73332ZM10.4998 9.83332H11.4998V10.8333H10.4998V9.83332Z" fill="#171719" stroke="#171719"/>
</mask>
<g mask="url(#mask0_2815_25675)">
<rect x="-0.000244141" width="16" height="16" fill="#171719"/>
</g>
</svg>
