<svg width="20" height="17" viewBox="0 0 20 17" fill="none" xmlns="http://www.w3.org/2000/svg">
<mask id="mask0_4032_42552" style="mask-type:alpha" maskUnits="userSpaceOnUse" x="0" y="0" width="20" height="17">
<path d="M12.5019 8.92096L12.9629 8.53685L12.5019 8.15274L6.61105 3.24367C6.59219 3.22795 6.58492 3.21572 6.58239 3.21051C6.58101 3.20768 6.58049 3.20583 6.58029 3.20496L6.58008 3.20352L6.58029 3.20207C6.58049 3.20121 6.58101 3.19935 6.58239 3.19652C6.58493 3.19131 6.59219 3.17908 6.61105 3.16336C6.70681 3.08357 6.89335 3.08357 6.9891 3.16336L13.3891 8.49669C13.408 8.51241 13.4152 8.52465 13.4178 8.52985C13.4191 8.53269 13.4197 8.53454 13.4199 8.53541L13.4201 8.53685L13.4199 8.53829C13.4198 8.53872 13.4196 8.53938 13.4193 8.54029C13.4189 8.54122 13.4185 8.54241 13.4178 8.54385C13.4152 8.54905 13.408 8.56128 13.3891 8.577L6.9891 13.9103C6.89335 13.9901 6.70681 13.9901 6.61105 13.9103C6.59219 13.8946 6.58493 13.8824 6.58239 13.8772C6.58101 13.8743 6.58049 13.8725 6.58029 13.8716L6.58008 13.8702L6.58029 13.8687C6.58049 13.8679 6.58101 13.866 6.58239 13.8632C6.58493 13.858 6.59219 13.8457 6.61105 13.83L12.5019 8.92096Z" fill="#171719" stroke="#171719"/>
</mask>
<g mask="url(#mask0_4032_42552)">
<rect y="0.537109" width="19.2" height="16" fill="#171719"/>
</g>
</svg>
