<svg width="20" height="20" viewBox="0 0 20 20" fill="none" xmlns="http://www.w3.org/2000/svg">
<mask id="mask0_2470_18733" style="mask-type:alpha" maskUnits="userSpaceOnUse" x="0" y="0" width="20" height="20">
<path d="M10.1127 7.6334C10.1185 7.63549 10.1531 7.64843 10.2438 7.73747C10.338 7.82986 10.4526 7.96291 10.6327 8.17307L12.7337 10.6243C13.0404 10.982 13.2475 11.2245 13.3823 11.4138C13.5129 11.5974 13.5211 11.6596 13.5214 11.6596C13.5236 11.7622 13.4783 11.8601 13.3987 11.925C13.3994 11.9245 13.3997 11.9242 13.3997 11.9242C13.3995 11.924 13.3469 11.9583 13.1226 11.9785C12.8911 11.9995 12.5722 11.9999 12.101 11.9999H7.89896C7.42777 11.9999 7.10889 11.9995 6.87743 11.9785C6.65306 11.9583 6.60048 11.924 6.60032 11.9242C6.52099 11.8591 6.47607 11.761 6.47862 11.6583C6.4786 11.6591 6.47857 11.6596 6.47859 11.6596C6.47888 11.6596 6.48705 11.5974 6.61769 11.4138C6.75245 11.2245 6.9596 10.982 7.26625 10.6243L9.36728 8.17307C9.54742 7.96291 9.66204 7.82986 9.75617 7.73747C9.84688 7.64843 9.88148 7.63549 9.88731 7.6334C9.96015 7.60723 10.0398 7.60723 10.1127 7.6334Z" fill="#171719" stroke="#171719"/>
</mask>
<g mask="url(#mask0_2470_18733)">
<rect width="20" height="20" fill="#171719"/>
</g>
</svg>
