<svg width="21" height="19" viewBox="0 0 21 19" fill="none" xmlns="http://www.w3.org/2000/svg">
<mask id="mask0_4032_35733" style="mask-type:alpha" maskUnits="userSpaceOnUse" x="0" y="0" width="21" height="19">
<path d="M8.25675 12.5231L8.58756 12.815L8.91837 12.5231L16.0274 6.25036C16.1372 6.15353 16.3379 6.15353 16.4477 6.25036C16.4933 6.2906 16.5026 6.32844 16.5026 6.35273C16.5026 6.37703 16.4933 6.41487 16.4477 6.45511L8.79768 13.2051C8.68794 13.3019 8.48717 13.3019 8.37743 13.2051L4.55243 9.83011C4.50682 9.78987 4.49756 9.75203 4.49756 9.72773C4.49756 9.70344 4.50682 9.6656 4.55243 9.62536C4.66217 9.52853 4.86294 9.52853 4.97268 9.62536L8.25675 12.5231Z" fill="#171719" stroke="#171719"/>
</mask>
<g mask="url(#mask0_4032_35733)">
<rect x="0.300049" y="0.727539" width="20.4" height="18" fill="white"/>
</g>
</svg>
