<svg width="14" height="14" viewBox="0 0 14 14" fill="none" xmlns="http://www.w3.org/2000/svg">
<mask id="mask0_3888_4079" style="mask-type:alpha" maskUnits="userSpaceOnUse" x="0" y="0" width="14" height="14">
<path fill-rule="evenodd" clip-rule="evenodd" d="M1.2251 7.0001C1.2251 3.81065 3.81066 1.2251 7.0001 1.2251C10.1896 1.2251 12.7751 3.81065 12.7751 7.0001C12.7751 10.1895 10.1896 12.7751 7.0001 12.7751C3.81066 12.7751 1.2251 10.1895 1.2251 7.0001ZM4.95843 4.21598L4.21597 4.95845L6.25764 7.00011L4.21597 9.04178L4.95843 9.78424L7.0001 7.74257L9.04177 9.78424L9.78423 9.04178L7.74256 7.00011L9.78423 4.95845L9.04177 4.21598L7.0001 6.25765L4.95843 4.21598Z" fill="#171719"/>
</mask>
<g mask="url(#mask0_3888_4079)">
<rect width="14" height="14" fill="#37383C" fill-opacity="0.28"/>
</g>
</svg>
