<svg width="16" height="16" viewBox="0 0 16 16" fill="none" xmlns="http://www.w3.org/2000/svg">
<mask id="mask0_2797_27727" style="mask-type:alpha" maskUnits="userSpaceOnUse" x="0" y="0" width="16" height="16">
<path fill-rule="evenodd" clip-rule="evenodd" d="M8.00039 1.3999C4.35531 1.3999 1.40039 4.35482 1.40039 7.9999C1.40039 11.645 4.35531 14.5999 8.00039 14.5999C11.6455 14.5999 14.6004 11.645 14.6004 7.9999C14.6004 4.35482 11.6455 1.3999 8.00039 1.3999ZM2.60039 7.9999C2.60039 5.01756 5.01805 2.5999 8.00039 2.5999C9.2754 2.5999 10.4472 3.04179 11.371 3.78076L3.78125 11.3705C3.04228 10.4467 2.60039 9.27491 2.60039 7.9999ZM4.62978 12.219C5.55358 12.958 6.72538 13.3999 8.00039 13.3999C10.9827 13.3999 13.4004 10.9822 13.4004 7.9999C13.4004 6.72489 12.9585 5.55309 12.2195 4.62929L4.62978 12.219Z" fill="#171719"/>
</mask>
<g mask="url(#mask0_2797_27727)">
<rect width="16" height="16" fill="#171719"/>
</g>
</svg>
