<svg width="16" height="17" viewBox="0 0 16 17" fill="none" xmlns="http://www.w3.org/2000/svg">
<mask id="mask0_2551_59756" style="mask-type:alpha" maskUnits="userSpaceOnUse" x="0" y="0" width="16" height="17">
<path fill-rule="evenodd" clip-rule="evenodd" d="M12.0799 4.76776C11.2086 3.89649 9.796 3.89649 8.92471 4.76776L6.99905 6.69341L6.15052 5.84488L8.07619 3.91923C9.4161 2.57934 11.5885 2.57933 12.9284 3.91923C14.2683 5.25913 14.2683 7.43154 12.9284 8.77144L11.0027 10.6971L10.1542 9.84857L12.0799 7.92291C12.9511 7.05165 12.9511 5.63903 12.0799 4.76776ZM10.5152 7.18097L6.33332 11.3628L5.48479 10.5143L9.66665 6.33244L10.5152 7.18097ZM5.18185 8.51617L3.92011 9.77237C3.04918 10.6437 3.04895 12.0563 3.92011 12.9275C4.79122 13.7986 6.20349 13.7988 7.07479 12.928L8.33146 11.6658L9.18185 12.5124L7.92471 13.7751L7.92379 13.776C6.58389 15.116 4.41147 15.116 3.07157 13.776C1.73167 12.4361 1.73168 10.2638 3.07157 8.92385L4.33519 7.66578L5.18185 8.51617Z" fill="#171719"/>
</mask>
<g mask="url(#mask0_2551_59756)">
<rect y="0.847656" width="16" height="16" fill="#37383C" fillOpacity="0.61"/>
</g>
</svg>
