<svg width="16" height="17" viewBox="0 0 16 17" fill="none" xmlns="http://www.w3.org/2000/svg">
<mask id="mask0_2551_59761" style="mask-type:alpha" maskUnits="userSpaceOnUse" x="0" y="0" width="16" height="17">
<path fill-rule="evenodd" clip-rule="evenodd" d="M3.78554 4.21446C4.8845 2.90649 6.44204 2.24756 7.99786 2.24756C9.55347 2.24756 11.1046 2.89968 12.2104 4.21469C14.1203 6.48559 13.8238 9.83607 11.7696 11.8977L11.7688 11.8985C10.603 13.0642 9.26158 14.4812 8.69878 15.0756C8.66041 15.1162 8.62566 15.1529 8.59483 15.1854C8.27135 15.5305 7.72442 15.5305 7.40092 15.1854C7.37009 15.1529 7.33533 15.1162 7.29695 15.0756C6.73416 14.4812 5.39268 13.0642 4.22693 11.8985L4.22617 11.8977C2.17241 9.83658 1.87486 6.47926 3.78554 4.21446ZM7.99786 3.44756C6.78055 3.44756 5.56497 3.96178 4.70395 4.98681L4.70308 4.98784C3.22769 6.73624 3.42344 9.39162 5.07584 11.0503C6.14804 12.1226 7.36428 13.4018 7.99786 14.0706C8.63144 13.4018 9.84766 12.1226 10.9198 11.0504C12.5719 9.39202 12.7686 6.74274 11.292 4.98709C10.4245 3.95547 9.21557 3.44756 7.99786 3.44756ZM7.99786 7.08756C7.6359 7.08756 7.34453 7.37893 7.34453 7.74089C7.34453 8.10285 7.6359 8.39423 7.99786 8.39423C8.35982 8.39423 8.6512 8.10285 8.6512 7.74089C8.6512 7.37893 8.35983 7.08756 7.99786 7.08756ZM6.14453 7.74089C6.14453 6.71619 6.97316 5.88756 7.99786 5.88756C9.02257 5.88756 9.8512 6.71619 9.8512 7.74089C9.8512 8.7656 9.02257 9.59422 7.99786 9.59422C6.97316 9.59422 6.14453 8.7656 6.14453 7.74089Z" fill="#171719"/>
</mask>
<g mask="url(#mask0_2551_59761)">
<rect y="0.847656" width="16" height="16" fill="#37383C" fill-opacity="0.61"/>
</g>
</svg>
