<svg width="20" height="21" viewBox="0 0 20 21" fill="none" xmlns="http://www.w3.org/2000/svg">
<path d="M4.1665 8.99658C4.1665 13.0398 7.70357 16.3833 9.26916 17.6652C9.49322 17.8487 9.6066 17.9415 9.77376 17.9886C9.90393 18.0252 10.0955 18.0252 10.2257 17.9886C10.3931 17.9414 10.5057 17.8495 10.7306 17.6653C12.2962 16.3834 15.8331 13.0401 15.8331 8.99695C15.8331 7.46686 15.2186 5.99925 14.1246 4.91731C13.0306 3.83537 11.547 3.22754 9.9999 3.22754C8.45281 3.22754 6.96901 3.83546 5.87505 4.9174C4.78109 5.99934 4.1665 7.46649 4.1665 8.99658Z" stroke="#989BA2" strokeWidth="1.16667" stroke-linecap="round" stroke-linejoin="round"/>
<path d="M8.33317 8.22754C8.33317 9.14801 9.07936 9.89421 9.99984 9.89421C10.9203 9.89421 11.6665 9.14801 11.6665 8.22754C11.6665 7.30706 10.9203 6.56087 9.99984 6.56087C9.07936 6.56087 8.33317 7.30706 8.33317 8.22754Z" stroke="#989BA2" strokeWidth="1.16667" stroke-linecap="round" stroke-linejoin="round"/>
</svg>
