<svg width="24" height="25" viewBox="0 0 24 25" fill="none" xmlns="http://www.w3.org/2000/svg">
<path fill-rule="evenodd" clip-rule="evenodd" d="M5.67855 5.35074C7.32698 3.38879 9.6633 2.40039 11.997 2.40039C14.3304 2.40039 16.6571 3.37857 18.3158 5.35109C21.1807 8.75744 20.736 13.7832 17.6546 16.8756L17.6534 16.8768C15.9048 18.6254 13.8926 20.7508 13.0484 21.6425C12.9908 21.7033 12.9387 21.7583 12.8925 21.8071C12.4073 22.3248 11.5869 22.3248 11.1016 21.8072C11.0554 21.7584 11.0032 21.7033 10.9457 21.6425C10.1015 20.7508 8.08926 18.6254 6.34064 16.8768L6.33949 16.8756C3.25886 13.7839 2.81253 8.74794 5.67855 5.35074ZM11.997 4.20039C10.1711 4.20039 8.34769 4.97173 7.05616 6.50926L7.05486 6.51082C4.84178 9.13341 5.13539 13.1165 7.614 15.6046C9.2223 17.2129 11.0466 19.1318 11.997 20.1349C12.9474 19.1318 14.7717 17.2129 16.38 15.6046C18.8581 13.1171 19.1531 9.14316 16.9382 6.50969C15.637 4.96225 13.8236 4.20039 11.997 4.20039ZM11.997 9.66039C11.4541 9.66039 11.017 10.0974 11.017 10.6404C11.017 11.1833 11.4541 11.6204 11.997 11.6204C12.54 11.6204 12.977 11.1833 12.977 10.6404C12.977 10.0974 12.54 9.66039 11.997 9.66039ZM9.21703 10.6404C9.21703 9.10333 10.46 7.86039 11.997 7.86039C13.5341 7.86039 14.777 9.10333 14.777 10.6404C14.777 12.1774 13.5341 13.4204 11.997 13.4204C10.46 13.4204 9.21703 12.1774 9.21703 10.6404Z" fill="#171719"/>
</svg>
