<svg width="16" height="17" viewBox="0 0 16 17" fill="none" xmlns="http://www.w3.org/2000/svg">
<mask id="mask0_2551_59775" style="mask-type:alpha" maskUnits="userSpaceOnUse" x="0" y="0" width="16" height="17">
<path fill-rule="evenodd" clip-rule="evenodd" d="M2.88047 3.41748C2.71093 3.41746 2.54956 3.41745 2.41359 3.42856C2.26532 3.44067 2.09524 3.46893 1.92526 3.55554C1.68692 3.67698 1.49314 3.87076 1.3717 4.1091C1.28509 4.27908 1.25683 4.44915 1.24472 4.59743C1.23361 4.7334 1.23363 4.89476 1.23364 5.06431V12.6373C1.23363 12.8069 1.23361 12.9682 1.24472 13.1042C1.25683 13.2525 1.28509 13.4226 1.3717 13.5925C1.49314 13.8309 1.68692 14.0247 1.92526 14.1461C2.09524 14.2327 2.26532 14.261 2.41359 14.2731C2.54956 14.2842 2.71092 14.2842 2.88047 14.2841H13.1202C13.2897 14.2842 13.4511 14.2842 13.587 14.2731C13.7353 14.261 13.9054 14.2327 14.0754 14.1461C14.3137 14.0247 14.5075 13.8309 14.6289 13.5925C14.7155 13.4226 14.7438 13.2525 14.7559 13.1042C14.767 12.9682 14.767 12.8069 14.767 12.6374V5.06431C14.767 4.89477 14.767 4.73339 14.7559 4.59743C14.7438 4.44915 14.7155 4.27908 14.6289 4.1091C14.5075 3.87076 14.3137 3.67698 14.0754 3.55554C13.9054 3.46893 13.7353 3.44067 13.587 3.42856C13.4511 3.41745 13.2897 3.41746 13.1202 3.41748H2.88047ZM2.43341 4.67861C2.43341 4.64179 2.46326 4.61194 2.50008 4.61194H13.5001C13.5369 4.61194 13.5667 4.64179 13.5667 4.67861V13.0119C13.5667 13.0488 13.5369 13.0786 13.5001 13.0786H2.50008C2.46326 13.0786 2.43341 13.0488 2.43341 13.0119V4.67861ZM4.53625 5.87516C4.27521 5.67104 3.89812 5.71719 3.69401 5.97824C3.48989 6.23928 3.53604 6.61637 3.79709 6.82048L8.00373 10.1097L12.2033 6.82016C12.4642 6.61582 12.51 6.2387 12.3057 5.97783C12.1013 5.71696 11.7242 5.67114 11.4634 5.87547L8.00307 8.58592L4.53625 5.87516Z" fill="#171719"/>
</mask>
<g mask="url(#mask0_2551_59775)">
<rect y="0.847656" width="16" height="16" fill="#37383C" fillOpacity="0.61"/>
</g>
</svg>
