<svg width="24" height="25" viewBox="0 0 24 25" fill="none" xmlns="http://www.w3.org/2000/svg">
<path fill-rule="evenodd" clip-rule="evenodd" d="M4.32083 4.10156C4.06651 4.10154 3.82446 4.10152 3.6205 4.11818C3.39809 4.13635 3.14298 4.17874 2.88801 4.30865C2.5305 4.49081 2.23984 4.78148 2.05768 5.13898C1.92776 5.39396 1.88537 5.64907 1.8672 5.87148C1.85054 6.07544 1.85056 6.31749 1.85059 6.57181V17.9313C1.85056 18.1856 1.85054 18.4277 1.8672 18.6317C1.88537 18.8541 1.92776 19.1092 2.05768 19.3641C2.23984 19.7217 2.5305 20.0123 2.88801 20.1945C3.14298 20.3244 3.39809 20.3668 3.6205 20.385C3.82446 20.4016 4.06651 20.4016 4.32083 20.4016H19.6803C19.9347 20.4016 20.1767 20.4016 20.3807 20.385C20.6031 20.3668 20.8582 20.3244 21.1132 20.1945C21.4707 20.0123 21.7613 19.7217 21.9435 19.3641C22.0734 19.1092 22.1158 18.8541 22.134 18.6317C22.1506 18.4277 22.1506 18.1857 22.1506 17.9314V6.57181C22.1506 6.3175 22.1506 6.07543 22.134 5.87148C22.1158 5.64907 22.0734 5.39396 21.9435 5.13898C21.7613 4.78148 21.4707 4.49081 21.1132 4.30865C20.8582 4.17874 20.6031 4.13635 20.3807 4.11818C20.1767 4.10152 19.9347 4.10154 19.6803 4.10156H4.32083ZM3.65024 5.99325C3.65024 5.93802 3.69501 5.89325 3.75024 5.89325H20.2502C20.3055 5.89325 20.3502 5.93802 20.3502 5.99325V18.4933C20.3502 18.5485 20.3055 18.5933 20.2502 18.5933H3.75024C3.69501 18.5933 3.65024 18.5485 3.65024 18.4933V5.99325ZM6.80449 7.78808C6.41293 7.48191 5.8473 7.55113 5.54113 7.9427C5.23496 8.33426 5.30418 8.89989 5.69575 9.20606L12.0057 14.1399L18.3051 9.20559C18.6964 8.89908 18.7651 8.33339 18.4586 7.94209C18.1521 7.55079 17.5864 7.48205 17.1951 7.78855L12.0047 11.8542L6.80449 7.78808Z" fill="#171719"/>
</svg>
