<svg width="24" height="25" viewBox="0 0 24 25" fill="none" xmlns="http://www.w3.org/2000/svg">
<path fill-rule="evenodd" clip-rule="evenodd" d="M9.95059 2.09766H9.91518H9.91516C9.3853 2.09764 8.93413 2.09763 8.5637 2.1279C8.17454 2.15969 7.79595 2.22933 7.43402 2.41374C6.88835 2.69177 6.4447 3.13542 6.16667 3.68109C5.98225 4.04302 5.91262 4.42161 5.88083 4.81077C5.85056 5.1812 5.85057 5.63237 5.85059 6.16223V6.16226V6.19766V18.2977V18.3331V18.3331C5.85057 18.8629 5.85056 19.3141 5.88083 19.6845C5.91262 20.0737 5.98225 20.4523 6.16667 20.8142C6.4447 21.3599 6.88835 21.8035 7.43402 22.0816C7.79595 22.266 8.17454 22.3356 8.5637 22.3674C8.93413 22.3977 9.3853 22.3977 9.91516 22.3977H9.91518H9.95059H14.0506H14.086H14.086C14.6159 22.3977 15.067 22.3977 15.4375 22.3674C15.8266 22.3356 16.2052 22.266 16.5672 22.0816C17.1128 21.8035 17.5565 21.3599 17.8345 20.8142C18.0189 20.4523 18.0886 20.0737 18.1203 19.6845C18.1506 19.3141 18.1506 18.8629 18.1506 18.3331V18.2977V6.19766V6.16225C18.1506 5.63238 18.1506 5.1812 18.1203 4.81077C18.0886 4.42161 18.0189 4.04302 17.8345 3.68109C17.5565 3.13542 17.1128 2.69177 16.5672 2.41374C16.2052 2.22933 15.8266 2.15969 15.4375 2.1279C15.067 2.09763 14.6159 2.09764 14.086 2.09766H14.086H14.0506H9.95059ZM8.2512 4.01755C8.31709 3.98398 8.43243 3.94462 8.71028 3.92192C8.99863 3.89836 9.37568 3.89766 9.95059 3.89766H14.0506C14.6255 3.89766 15.0025 3.89836 15.2909 3.92192C15.5687 3.94462 15.6841 3.98398 15.75 4.01755C15.957 4.12301 16.1252 4.29129 16.2307 4.49827C16.2643 4.56416 16.3036 4.6795 16.3263 4.95735C16.3499 5.2457 16.3506 5.62275 16.3506 6.19766V18.2977C16.3506 18.8726 16.3499 19.2496 16.3263 19.538C16.3036 19.8158 16.2643 19.9312 16.2307 19.997C16.1252 20.204 15.957 20.3723 15.75 20.4778C15.6841 20.5113 15.5687 20.5507 15.2909 20.5734C15.0025 20.597 14.6255 20.5977 14.0506 20.5977H9.95059C9.37568 20.5977 8.99863 20.597 8.71028 20.5734C8.43243 20.5507 8.31709 20.5113 8.2512 20.4778C8.04422 20.3723 7.87594 20.204 7.77048 19.997C7.73691 19.9312 7.69755 19.8158 7.67485 19.538C7.65129 19.2496 7.65059 18.8726 7.65059 18.2977V6.19766C7.65059 5.62275 7.65129 5.2457 7.67485 4.95735C7.69755 4.6795 7.73691 4.56416 7.77048 4.49827C7.87594 4.29129 8.04422 4.12301 8.2512 4.01755ZM10.0005 18.0719C9.62775 18.0719 9.32554 18.3741 9.32554 18.7469C9.32554 19.1197 9.62775 19.4219 10.0005 19.4219H14.0005C14.3733 19.4219 14.6755 19.1197 14.6755 18.7469C14.6755 18.3741 14.3733 18.0719 14.0005 18.0719H10.0005Z" fill="#171719"/>
</svg>
