<svg width="20" height="20" viewBox="0 0 20 20" fill="none" xmlns="http://www.w3.org/2000/svg">
<mask id="mask0_996_40569" style="mask-type:alpha" maskUnits="userSpaceOnUse" x="0" y="2" width="21" height="16">
<path d="M10.0801 12.2013L10.4001 12.4681L10.7202 12.2013L16.6111 7.29227C16.7069 7.21247 16.8934 7.21247 16.9892 7.29227C17.008 7.30799 17.0153 7.32022 17.0178 7.32542C17.0192 7.32826 17.0197 7.33011 17.0199 7.33098L17.0201 7.33242L17.0199 7.33387C17.0197 7.33473 17.0192 7.33658 17.0178 7.33942C17.0153 7.34463 17.008 7.35686 16.9892 7.37258L10.5892 12.7059C10.4934 12.7857 10.3069 12.7857 10.2111 12.7059L3.81113 7.37258C3.79226 7.35686 3.785 7.34462 3.78247 7.33942C3.78108 7.33658 3.78056 7.33473 3.78036 7.33387L3.78015 7.33242L3.78036 7.33098C3.78056 7.33011 3.78108 7.32826 3.78247 7.32542C3.785 7.32022 3.79226 7.30799 3.81113 7.29227C3.90688 7.21247 4.09342 7.21247 4.18917 7.29227L10.0801 12.2013Z" fill="#171719" stroke="#171719"/>
</mask>
<g mask="url(#mask0_996_40569)">
<rect x="0.799927" y="2" width="19.2" height="16" fill="#989BA2"/>
</g>
</svg>
