<svg width="20" height="20" viewBox="0 0 20 20" fill="none" xmlns="http://www.w3.org/2000/svg">
<mask id="mask0_1014_25834" style="mask-type:alpha" maskUnits="userSpaceOnUse" x="0" y="2" width="21" height="16">
<path d="M10.72 7.46481L10.3999 7.19806L10.0798 7.46481L4.18893 12.3739C4.09318 12.4537 3.90664 12.4537 3.81088 12.3739C3.79202 12.3582 3.78475 12.3459 3.78222 12.3407C3.78084 12.3379 3.78032 12.336 3.78012 12.3352L3.77991 12.3337L3.78012 12.3323C3.78032 12.3314 3.78084 12.3296 3.78222 12.3267C3.78475 12.3215 3.79202 12.3093 3.81088 12.2936L10.2109 6.96024C10.3066 6.88044 10.4932 6.88044 10.5889 6.96024L16.9889 12.2936C17.0078 12.3093 17.0151 12.3215 17.0176 12.3267C17.019 12.3296 17.0195 12.3314 17.0197 12.3323L17.0199 12.3337L17.0197 12.3352C17.0195 12.336 17.019 12.3379 17.0176 12.3407C17.0151 12.3459 17.0078 12.3582 16.9889 12.3739C16.8932 12.4537 16.7066 12.4537 16.6109 12.3739L10.72 7.46481Z" fill="#171719" stroke="#171719"/>
</mask>
<g mask="url(#mask0_1014_25834)">
<rect x="0.799927" y="2" width="19.2" height="16" fill="#989BA2"/>
</g>
</svg>
