<svg width="16" height="16" viewBox="0 0 16 16" fill="none" xmlns="http://www.w3.org/2000/svg">
<mask id="mask0_2797_25713" style="mask-type:alpha" maskUnits="userSpaceOnUse" x="0" y="0" width="16" height="16">
<path fill-rule="evenodd" clip-rule="evenodd" d="M11.4309 6.41779L7.11804 10.8614L4.56984 8.23597L5.43094 7.4002L7.11804 9.13842L10.5698 5.58202L11.4309 6.41779Z" fill="#171719"/>
<path fill-rule="evenodd" clip-rule="evenodd" d="M8.00039 2.5999C5.01805 2.5999 2.60039 5.01756 2.60039 7.9999C2.60039 10.9822 5.01805 13.3999 8.00039 13.3999C10.9827 13.3999 13.4004 10.9822 13.4004 7.9999C13.4004 5.01756 10.9827 2.5999 8.00039 2.5999ZM1.40039 7.9999C1.40039 4.35482 4.35531 1.3999 8.00039 1.3999C11.6455 1.3999 14.6004 4.35482 14.6004 7.9999C14.6004 11.645 11.6455 14.5999 8.00039 14.5999C4.35531 14.5999 1.40039 11.645 1.40039 7.9999Z" fill="#171719"/>
</mask>
<g mask="url(#mask0_2797_25713)">
<rect width="16" height="16" fill="#171719"/>
</g>
</svg>
