<svg width="16" height="16" viewBox="0 0 16 16" fill="none" xmlns="http://www.w3.org/2000/svg">
<mask id="mask0_2815_30543" style="mask-type:alpha" maskUnits="userSpaceOnUse" x="0" y="0" width="16" height="16">
<path fill-rule="evenodd" clip-rule="evenodd" d="M12.4472 1.73826C12.1928 1.6556 11.9188 1.6556 11.6644 1.73826C11.4829 1.79722 11.3427 1.8975 11.2293 1.99378C11.1253 2.08207 11.0112 2.19617 10.8913 2.31607L10.8773 2.33011L2.06689 11.1405V13.9335H4.85987L13.6702 5.12308L13.6843 5.10905C13.8042 4.98918 13.9183 4.87509 14.0066 4.77109C14.1029 4.65767 14.2031 4.51743 14.2621 4.33599C14.3448 4.08159 14.3448 3.80755 14.2621 3.55315C14.2031 3.37171 14.1029 3.23147 14.0066 3.11806C13.9183 3.01406 13.8042 2.89998 13.6843 2.78011L13.2203 2.31608C13.1004 2.19618 12.9863 2.08207 12.8823 1.99378C12.7689 1.8975 12.6286 1.79722 12.4472 1.73826ZM12.0086 2.89579C12.0347 2.86975 12.0769 2.86975 12.1029 2.89579L13.1046 3.89742C13.1306 3.92346 13.1306 3.96567 13.1046 3.9917L4.3628 12.7335H3.26689V11.6375L12.0086 2.89579Z" fill="#171719"/>
</mask>
<g mask="url(#mask0_2815_30543)">
<rect width="16" height="16" fill="#171719"/>
</g>
</svg>
