<svg width="16" height="17" viewBox="0 0 16 17" fill="none" xmlns="http://www.w3.org/2000/svg">
<mask id="mask0_2551_59767" style="mask-type:alpha" maskUnits="userSpaceOnUse" x="0" y="0" width="16" height="17">
<path fill-rule="evenodd" clip-rule="evenodd" d="M6.08133 5.69957C6.08133 4.64 6.94028 3.78105 7.99985 3.78105C9.05942 3.78105 9.91837 4.64 9.91837 5.69957C9.91837 6.75914 9.05942 7.61809 7.99985 7.61809C6.94028 7.61809 6.08133 6.75914 6.08133 5.69957ZM7.99985 2.58105C6.27754 2.58105 4.88133 3.97726 4.88133 5.69957C4.88133 7.42188 6.27754 8.81809 7.99985 8.81809C9.72216 8.81809 11.1184 7.42188 11.1184 5.69957C11.1184 3.97726 9.72216 2.58105 7.99985 2.58105ZM7.99991 9.58171C9.95469 9.58171 11.8702 10.1295 13.5395 11.1426C13.6684 11.2206 13.8244 11.3151 13.9553 11.4654C14.0659 11.5924 14.1565 11.7538 14.2074 11.9144C14.2678 12.1048 14.2672 12.2983 14.2668 12.4602L14.2667 13.4679C14.2667 13.6375 14.2667 13.7989 14.2556 13.9348C14.2435 14.0831 14.2152 14.2532 14.1286 14.4232C14.0072 14.6615 13.8134 14.8553 13.5751 14.9767C13.4051 15.0633 13.235 15.0916 13.0867 15.1037C12.9508 15.1148 12.7894 15.1148 12.6198 15.1148H3.38015C3.2106 15.1148 3.04924 15.1148 2.91327 15.1037C2.76499 15.0916 2.59492 15.0633 2.42493 14.9767C2.1866 14.8553 1.99282 14.6615 1.87138 14.4232C1.78477 14.2532 1.75651 14.0831 1.7444 13.9348C1.73329 13.7989 1.7333 13.6375 1.73332 13.4679L1.73324 12.4601C1.73277 12.2982 1.7322 12.1046 1.79256 11.9143C1.84348 11.7537 1.93413 11.5923 2.04474 11.4653C2.17559 11.315 2.33164 11.2205 2.46051 11.1425C4.12982 10.1294 6.0452 9.58171 7.99991 9.58171ZM2.94807 12.2528C4.40676 11.3213 6.13935 10.7814 7.99988 10.7814C9.86049 10.7814 11.5931 11.3214 13.0519 12.2529C13.0544 12.2545 13.0666 12.2649 13.0666 12.2911V13.8478C13.0666 13.8846 13.0368 13.9145 13 13.9145H2.99996C2.96315 13.9145 2.9333 13.8846 2.9333 13.8478V12.291C2.9333 12.2648 2.94553 12.2544 2.94807 12.2528Z" fill="#171719"/>
</mask>
<g mask="url(#mask0_2551_59767)">
<rect y="0.847656" width="16" height="16" fill="#37383C" fillOpacity="0.61"/>
</g>
</svg>
