<svg width="24" height="24" viewBox="0 0 24 24" fill="none" xmlns="http://www.w3.org/2000/svg">
<path d="M12.0016 2.3501C12.4986 2.3501 12.9016 2.75304 12.9016 3.2501V11.1001H20.7516C21.2486 11.1001 21.6516 11.503 21.6516 12.0001C21.6516 12.4972 21.2486 12.9001 20.7516 12.9001H12.9016V20.7501C12.9016 21.2472 12.4986 21.6501 12.0016 21.6501C11.5045 21.6501 11.1016 21.2472 11.1016 20.7501V12.9001H3.25156C2.75451 12.9001 2.35156 12.4972 2.35156 12.0001C2.35156 11.503 2.75451 11.1001 3.25156 11.1001H11.1016V3.2501C11.1016 2.75304 11.5045 2.3501 12.0016 2.3501Z" fill="#171719"/>
</svg>
