<svg width="21" height="19" viewBox="0 0 21 19" fill="none" xmlns="http://www.w3.org/2000/svg">
<mask id="mask0_3993_48367" style="mask-type:alpha" maskUnits="userSpaceOnUse" x="0" y="0" width="21" height="19">
<path d="M10.7649 9.05273V9.55273H11.2649H17.9374C18.0299 9.55273 18.1027 9.58582 18.1475 9.62536C18.1913 9.66405 18.2024 9.70125 18.2024 9.72773C18.2024 9.75422 18.1913 9.79142 18.1475 9.83011C18.1027 9.86965 18.0299 9.90273 17.9374 9.90273H11.2649H10.7649V10.4027V16.2902C10.7649 16.3167 10.7538 16.3539 10.71 16.3926C10.6652 16.4321 10.5924 16.4652 10.4999 16.4652C10.4074 16.4652 10.3345 16.4321 10.2897 16.3926C10.2459 16.3539 10.2349 16.3167 10.2349 16.2902V10.4027V9.90273H9.73486H3.06236C2.96986 9.90273 2.89704 9.86965 2.85224 9.83011C2.80838 9.79142 2.79736 9.75422 2.79736 9.72773C2.79736 9.70125 2.80838 9.66405 2.85224 9.62536C2.89704 9.58582 2.96986 9.55273 3.06236 9.55273H9.73486H10.2349V9.05273V3.16523C10.2349 3.13875 10.2459 3.10155 10.2897 3.06286C10.3345 3.02332 10.4074 2.99023 10.4999 2.99023C10.5924 2.99023 10.6652 3.02332 10.71 3.06286C10.7538 3.10155 10.7649 3.13875 10.7649 3.16523V9.05273Z" fill="#171719" stroke="#171719"/>
</mask>
<g mask="url(#mask0_3993_48367)">
<rect x="0.300049" y="0.727539" width="20.4" height="18" fill="white"/>
</g>
</svg>
