<svg width="32" height="32" viewBox="0 0 32 32" fill="none" xmlns="http://www.w3.org/2000/svg">
<mask id="mask0_2551_86397" style="mask-type:alpha" maskUnits="userSpaceOnUse" x="0" y="0" width="32" height="32">
<path fill-rule="evenodd" clip-rule="evenodd" d="M14.8 17.2V22.6667H17.2V17.2H22.6667V14.8H17.2V9.33338H14.8V14.8H9.33337V17.2H14.8Z" fill="#171719"/>
<path fill-rule="evenodd" clip-rule="evenodd" d="M16 5.20005C10.0354 5.20005 5.20004 10.0354 5.20004 16C5.20004 21.9647 10.0354 26.8 16 26.8C21.9647 26.8 26.8 21.9647 26.8 16C26.8 10.0354 21.9647 5.20005 16 5.20005ZM2.80005 16C2.80005 8.70989 8.70988 2.80005 16 2.80005C23.2902 2.80005 29.2 8.70989 29.2 16C29.2 23.2902 23.2902 29.2 16 29.2C8.70988 29.2 2.80005 23.2902 2.80005 16Z" fill="#171719"/>
</mask>
<g mask="url(#mask0_2551_86397)">
<rect width="31.9999" height="32" fill="#70737C" fillOpacity="0.22"/>
</g>
</svg>
