<svg width="22" height="20" viewBox="0 0 22 20" fill="none" xmlns="http://www.w3.org/2000/svg">
<mask id="mask0_2571_28097" style="mask-type:alpha" maskUnits="userSpaceOnUse" x="0" y="0" width="22" height="20">
<path d="M11.3097 9.25016V9.75016H11.8097H18.8747C19.0828 9.75016 19.1847 9.89763 19.1847 10.0002C19.1847 10.1027 19.0828 10.2502 18.8747 10.2502H11.8097H11.3097V10.7502V17.2918C11.3097 17.3944 11.2078 17.5418 10.9997 17.5418C10.7916 17.5418 10.6897 17.3944 10.6897 17.2918V10.7502V10.2502H10.1897H3.1247C2.91656 10.2502 2.8147 10.1027 2.8147 10.0002C2.8147 9.89763 2.91656 9.75016 3.1247 9.75016H10.1897H10.6897V9.25016V2.7085C10.6897 2.60596 10.7916 2.4585 10.9997 2.4585C11.2078 2.4585 11.3097 2.60596 11.3097 2.7085V9.25016Z" fill="#171719" stroke="#171719"/>
</mask>
<g mask="url(#mask0_2571_28097)">
<rect x="0.199951" width="21.6" height="20" fill="#B81716"/>
</g>
</svg>
