<svg width="22" height="20" viewBox="0 0 22 20" fill="none" xmlns="http://www.w3.org/2000/svg">
<g opacity="0.16">
<mask id="mask0_2534_24034" style="mask-type:alpha" maskUnits="userSpaceOnUse" x="0" y="0" width="22" height="20">
<path fill-rule="evenodd" clip-rule="evenodd" d="M9.39906 1.75C5.47232 1.75 2.28906 4.69746 2.28906 8.33333C2.28906 11.9692 5.47232 14.9167 9.39906 14.9167C11.0706 14.9167 12.6075 14.3826 13.8214 13.4886L18.2764 17.6136C18.5928 17.9065 19.1056 17.9065 19.4219 17.6136C19.7383 17.3207 19.7383 16.8459 19.4219 16.553L14.9669 12.4279C15.9323 11.3039 16.5091 9.88101 16.5091 8.33333C16.5091 4.69746 13.3258 1.75 9.39906 1.75ZM3.90906 8.33333C3.90906 5.52589 6.36702 3.25 9.39906 3.25C12.4311 3.25 14.8891 5.52589 14.8891 8.33333C14.8891 11.1408 12.4311 13.4167 9.39906 13.4167C6.36702 13.4167 3.90906 11.1408 3.90906 8.33333Z" fill="#171719"/>
</mask>
<g mask="url(#mask0_2534_24034)">
<rect x="0.398438" width="21.6" height="20" fill="#171719"/>
</g>
</g>
</svg>
