<svg width="16" height="16" viewBox="0 0 16 16" fill="none" xmlns="http://www.w3.org/2000/svg">
<mask id="mask0_6937_17949" style="mask-type:alpha" maskUnits="userSpaceOnUse" x="0" y="0" width="16" height="16">
<path d="M6.66657 6.66657C6.66657 7.03476 6.36809 7.33324 5.9999 7.33324C5.63171 7.33324 5.33324 7.03476 5.33324 6.66657C5.33324 6.29838 5.63171 5.9999 5.9999 5.9999C6.36809 5.9999 6.66657 6.29838 6.66657 6.66657Z" fill="#171719"/>
<path d="M10.6666 6.66657C10.6666 7.03476 10.3681 7.33324 9.99991 7.33324C9.63172 7.33324 9.33324 7.03476 9.33324 6.66657C9.33324 6.29838 9.63172 5.9999 9.99991 5.9999C10.3681 5.9999 10.6666 6.29838 10.6666 6.66657Z" fill="#171719"/>
<path fill-rule="evenodd" clip-rule="evenodd" d="M5.6985 8.68113C5.98503 8.51467 6.35225 8.61201 6.51871 8.89853C6.82286 9.42207 7.38988 9.77327 8.03324 9.77327C8.6766 9.77327 9.24362 9.42207 9.54777 8.89853C9.71423 8.61201 10.0814 8.51467 10.368 8.68113C10.6545 8.84759 10.7518 9.21481 10.5854 9.50134C10.0762 10.3778 9.12321 10.9733 8.03324 10.9733C6.94327 10.9733 5.99028 10.3778 5.4811 9.50134C5.31464 9.21481 5.41198 8.84759 5.6985 8.68113Z" fill="#171719"/>
<path fill-rule="evenodd" clip-rule="evenodd" d="M7.99991 2.5999C5.01757 2.5999 2.5999 5.01756 2.5999 7.9999C2.5999 10.9822 5.01757 13.3999 7.99991 13.3999C10.9822 13.3999 13.3999 10.9822 13.3999 7.9999C13.3999 5.01756 10.9822 2.5999 7.99991 2.5999ZM1.3999 7.9999C1.3999 4.35482 4.35482 1.3999 7.99991 1.3999C11.645 1.3999 14.5999 4.35482 14.5999 7.9999C14.5999 11.645 11.645 14.5999 7.99991 14.5999C4.35482 14.5999 1.3999 11.645 1.3999 7.9999Z" fill="#171719"/>
</mask>
<g mask="url(#mask0_6937_17949)">
<rect width="16" height="16" fill="#171719"/>
</g>
</svg>
