<svg width="34" height="34" viewBox="0 0 34 34" fill="none" xmlns="http://www.w3.org/2000/svg">
<mask id="mask0_2476_28524" style="mask-type:alpha" maskUnits="userSpaceOnUse" x="7" y="7" width="20" height="20">
<path fill-rule="evenodd" clip-rule="evenodd" d="M16.0842 8.98233C16.2419 8.78516 16.5345 8.49463 16.9995 8.49463C17.4645 8.49463 17.7571 8.78516 17.9148 8.98233C18.0603 9.16417 18.205 9.41278 18.3455 9.65426C18.3529 9.66695 18.3603 9.67963 18.3677 9.69227L20.2915 12.9952C20.2981 13.0067 20.3043 13.0172 20.31 13.0269C20.321 13.0293 20.3329 13.0319 20.3458 13.0347L24.0816 13.8437C24.0959 13.8468 24.1102 13.8499 24.1246 13.853C24.3977 13.912 24.6788 13.9728 24.8967 14.055C25.133 14.1441 25.4997 14.3326 25.6434 14.7748C25.7871 15.217 25.6012 15.5851 25.4624 15.796C25.3345 15.9906 25.1427 16.205 24.9565 16.4133C24.9467 16.4243 24.9369 16.4352 24.9272 16.4461L22.3804 19.2964C22.3715 19.3063 22.3634 19.3154 22.3559 19.3238C22.3571 19.335 22.3583 19.3471 22.3596 19.3603L22.7447 23.1633C22.7461 23.1778 22.7476 23.1924 22.7491 23.207C22.7773 23.4849 22.8064 23.7711 22.7956 24.0038C22.7838 24.256 22.7179 24.663 22.3417 24.9364C21.9656 25.2097 21.5581 25.1466 21.3146 25.0798C21.09 25.0182 20.8268 24.9021 20.5712 24.7894C20.5577 24.7835 20.5443 24.7775 20.5309 24.7716L17.0331 23.2303C17.021 23.2249 17.0098 23.22 16.9995 23.2155C16.9892 23.22 16.978 23.2249 16.9659 23.2303L13.4681 24.7716C13.4547 24.7775 13.4413 24.7835 13.4278 24.7894C13.1722 24.9021 12.909 25.0182 12.6844 25.0798C12.4409 25.1466 12.0334 25.2097 11.6573 24.9364C11.2811 24.663 11.2152 24.256 11.2034 24.0038C11.1926 23.7711 11.2217 23.485 11.2499 23.207C11.2514 23.1924 11.2529 23.1778 11.2543 23.1632L11.6394 19.3603C11.6407 19.3471 11.642 19.335 11.6431 19.3238C11.6356 19.3154 11.6275 19.3063 11.6186 19.2964L9.07182 16.4461C9.06207 16.4352 9.0523 16.4243 9.04252 16.4133C8.85628 16.205 8.66455 15.9906 8.53657 15.796C8.3978 15.5851 8.2119 15.217 8.35558 14.7748C8.49927 14.3326 8.86599 14.1441 9.10227 14.055C9.32017 13.9728 9.60132 13.912 9.87441 13.853C9.88876 13.8499 9.9031 13.8468 9.91739 13.8437L13.6532 13.0347C13.6661 13.0319 13.678 13.0293 13.689 13.0269C13.6947 13.0172 13.7009 13.0067 13.7075 12.9952L15.6313 9.69227C15.6387 9.67963 15.6461 9.66696 15.6535 9.65427C15.794 9.41279 15.9387 9.16417 16.0842 8.98233Z" fill="#171719"/>
</mask>
<g mask="url(#mask0_2476_28524)">
<rect x="7" y="7" width="19.9999" height="19.9999" fill="#FFDA58"/>
</g>
</svg>
