<svg width="34" height="34" viewBox="0 0 34 34" fill="none" xmlns="http://www.w3.org/2000/svg">
<mask id="mask0_2454_51542" style="mask-type:alpha" maskUnits="userSpaceOnUse" x="7" y="7" width="20" height="20">
<path d="M16.2799 10.0698C16.6003 9.51974 16.7605 9.2447 17 9.2447C17.2395 9.2447 17.3997 9.51974 17.7201 10.0698L19.6439 13.3728C19.7349 13.5291 19.7804 13.6072 19.8514 13.6588C19.9224 13.7104 20.0108 13.7295 20.1876 13.7678L23.9233 14.5768C24.5455 14.7115 24.8566 14.7789 24.9306 15.0066C25.0046 15.2344 24.7925 15.4718 24.3684 15.9465L21.8216 18.7968C21.7011 18.9317 21.6408 18.9991 21.6137 19.0825C21.5866 19.166 21.5957 19.256 21.6139 19.436L21.9989 23.2389C22.0631 23.8722 22.0951 24.1889 21.9014 24.3297C21.7076 24.4704 21.4163 24.3421 20.8338 24.0854L17.336 22.544C17.1705 22.4711 17.0877 22.4346 17 22.4346C16.9122 22.4346 16.8295 22.4711 16.6639 22.544L13.1661 24.0854C12.5836 24.3421 12.2923 24.4704 12.0986 24.3297C11.9048 24.1889 11.9369 23.8722 12.001 23.2389L12.386 19.436C12.4043 19.256 12.4134 19.166 12.3863 19.0825C12.3591 18.9991 12.2989 18.9317 12.1783 18.7968L9.63154 15.9465C9.20739 15.4718 8.99532 15.2344 9.06933 15.0066C9.14334 14.7789 9.45442 14.7115 10.0766 14.5768L13.8124 13.7678C13.9892 13.7295 14.0776 13.7104 14.1485 13.6588C14.2195 13.6072 14.265 13.5291 14.3561 13.3728L16.2799 10.0698Z" stroke="#171719" strokeWidth="1.49999" stroke-linejoin="round"/>
</mask>
<g mask="url(#mask0_2454_51542)">
<rect x="7" y="7" width="19.9999" height="19.9999" fill="#37383C" fillOpacity="0.61"/>
</g>
</svg>
