<svg width="42" height="42" viewBox="0 0 42 42" fill="none" xmlns="http://www.w3.org/2000/svg">
<g filter="url(#filter0_d_2476_28524)">
<mask id="mask0_2476_28524" style="mask-type:alpha" maskUnits="userSpaceOnUse" x="11" y="7" width="20" height="20">
<path fill-rule="evenodd" clip-rule="evenodd" d="M20.0842 8.98233C20.2419 8.78516 20.5345 8.49463 20.9995 8.49463C21.4645 8.49463 21.7571 8.78516 21.9148 8.98233C22.0603 9.16417 22.205 9.41278 22.3455 9.65426C22.3529 9.66695 22.3603 9.67963 22.3677 9.69227L24.2915 12.9952C24.2981 13.0067 24.3043 13.0172 24.31 13.0269C24.321 13.0293 24.3329 13.0319 24.3458 13.0347L28.0816 13.8437C28.0959 13.8468 28.1102 13.8499 28.1246 13.853C28.3977 13.912 28.6788 13.9728 28.8967 14.055C29.133 14.1441 29.4997 14.3326 29.6434 14.7748C29.7871 15.217 29.6012 15.5851 29.4624 15.796C29.3345 15.9906 29.1427 16.205 28.9565 16.4133C28.9467 16.4243 28.9369 16.4352 28.9272 16.4461L26.3804 19.2964C26.3715 19.3063 26.3634 19.3154 26.3559 19.3238C26.3571 19.335 26.3583 19.3471 26.3596 19.3603L26.7447 23.1633C26.7461 23.1778 26.7476 23.1924 26.7491 23.207C26.7773 23.4849 26.8064 23.7711 26.7956 24.0038C26.7838 24.256 26.7179 24.663 26.3417 24.9364C25.9656 25.2097 25.5581 25.1466 25.3146 25.0798C25.09 25.0182 24.8268 24.9021 24.5712 24.7894C24.5577 24.7835 24.5443 24.7775 24.5309 24.7716L21.0331 23.2303C21.021 23.2249 21.0098 23.22 20.9995 23.2155C20.9892 23.22 20.978 23.2249 20.9659 23.2303L17.4681 24.7716C17.4547 24.7775 17.4413 24.7835 17.4278 24.7894C17.1722 24.9021 16.909 25.0182 16.6844 25.0798C16.4409 25.1466 16.0334 25.2097 15.6573 24.9364C15.2811 24.663 15.2152 24.256 15.2034 24.0038C15.1926 23.7711 15.2217 23.485 15.2499 23.207C15.2514 23.1924 15.2529 23.1778 15.2543 23.1632L15.6394 19.3603C15.6407 19.3471 15.642 19.335 15.6431 19.3238C15.6356 19.3154 15.6275 19.3063 15.6186 19.2964L13.0718 16.4461C13.0621 16.4352 13.0523 16.4243 13.0425 16.4133C12.8563 16.205 12.6645 15.9906 12.5366 15.796C12.3978 15.5851 12.2119 15.217 12.3556 14.7748C12.4993 14.3326 12.866 14.1441 13.1023 14.055C13.3202 13.9728 13.6013 13.912 13.8744 13.853C13.8888 13.8499 13.9031 13.8468 13.9174 13.8437L17.6532 13.0347C17.6661 13.0319 17.678 13.0293 17.689 13.0269C17.6947 13.0172 17.7009 13.0067 17.7075 12.9952L19.6313 9.69227C19.6387 9.67963 19.6461 9.66696 19.6535 9.65427C19.794 9.41279 19.9387 9.16417 20.0842 8.98233Z" fill="#171719"/>
</mask>
<g mask="url(#mask0_2476_28524)">
<rect x="11" y="7" width="19.9999" height="19.9999" fill="#FFDA58"/>
</g>
</g>
<defs>
<filter id="filter0_d_2476_28524" x="0.333008" y="0.333496" width="41.333" height="41.333" filterUnits="userSpaceOnUse" color-interpolation-filters="sRGB">
<feFlood flood-opacity="0" result="BackgroundImageFix"/>
<feColorMatrix in="SourceAlpha" type="matrix" values="0 0 0 0 0 0 0 0 0 0 0 0 0 0 0 0 0 0 127 0" result="hardAlpha"/>
<feOffset dy="4"/>
<feGaussianBlur stdDeviation="2"/>
<feComposite in2="hardAlpha" operator="out"/>
<feColorMatrix type="matrix" values="0 0 0 0 0 0 0 0 0 0 0 0 0 0 0 0 0 0 0.25 0"/>
<feBlend mode="normal" in2="BackgroundImageFix" result="effect1_dropShadow_2476_28524"/>
<feBlend mode="normal" in="SourceGraphic" in2="effect1_dropShadow_2476_28524" result="shape"/>
</filter>
</defs>
</svg>
