<svg width="16" height="16" viewBox="0 0 16 16" fill="none" xmlns="http://www.w3.org/2000/svg">
<mask id="mask0_2815_7640" style="mask-type:alpha" maskUnits="userSpaceOnUse" x="-1" y="0" width="17" height="16">
<path fill-rule="evenodd" clip-rule="evenodd" d="M1.39966 7.99999C1.39966 7.78205 1.41024 7.56639 1.43096 7.35355L2.62532 7.46978C2.60835 7.64406 2.59966 7.82092 2.59966 7.99999C2.59966 10.9823 5.01732 13.4 7.99966 13.4C10.982 13.4 13.3997 10.9823 13.3997 7.99999C13.3997 5.01766 10.982 2.59999 7.99966 2.59999C7.82059 2.59999 7.64373 2.60869 7.46945 2.62565L7.35321 1.43129C7.56606 1.41058 7.78171 1.39999 7.99966 1.39999C11.6447 1.39999 14.5997 4.35491 14.5997 7.99999C14.5997 11.6451 11.6447 14.6 7.99966 14.6C4.35458 14.6 1.39966 11.6451 1.39966 7.99999ZM6.08339 1.68265C5.66565 1.80921 5.2655 1.97602 4.88748 2.17849L5.45407 3.23631C5.76318 3.07075 6.09015 2.93447 6.43134 2.8311L6.08339 1.68265ZM3.81234 2.89816C3.47851 3.17244 3.17211 3.47885 2.89783 3.81268L3.82501 4.57447C4.04968 4.30103 4.30069 4.05001 4.57414 3.82535L3.81234 2.89816ZM2.17816 4.88782C1.97568 5.26584 1.80888 5.66598 1.68231 6.08372L2.83076 6.43167C2.93413 6.09049 3.07041 5.76351 3.23597 5.4544L2.17816 4.88782ZM7.06634 5V8.66666V8.90393L7.22862 9.07703L9.22863 11.2103L10.1041 10.3896L8.26634 8.42939V5H7.06634Z" fill="#171719"/>
</mask>
<g mask="url(#mask0_2815_7640)">
<rect x="-0.000244141" width="16" height="16" fill="#171719"/>
</g>
</svg>
