<svg width="16" height="16" viewBox="0 0 16 16" fill="none" xmlns="http://www.w3.org/2000/svg">
<mask id="mask0_2815_2669" style="mask-type:alpha" maskUnits="userSpaceOnUse" x="0" y="0" width="16" height="16">
<path fill-rule="evenodd" clip-rule="evenodd" d="M6.00001 2.26613H10V1.06613H6.00001V2.26613ZM14 4.59973H13.1004L13.1004 12.9529C13.1004 13.1224 13.1004 13.2838 13.0893 13.4198C13.0772 13.5681 13.049 13.7381 12.9623 13.9081C12.8409 14.1465 12.6471 14.3402 12.4088 14.4617C12.2388 14.5483 12.0687 14.5765 11.9205 14.5887C11.7845 14.5998 11.6231 14.5997 11.4536 14.5997H4.54722C4.37769 14.5997 4.2163 14.5998 4.08034 14.5887C3.93207 14.5765 3.76199 14.5483 3.59201 14.4617C3.35367 14.3402 3.15989 14.1465 3.03845 13.9081C2.95184 13.7381 2.92358 13.5681 2.91147 13.4198C2.90036 13.2838 2.90038 13.1224 2.90039 12.9529L2.90039 4.59973H2V3.39973H14V4.59973ZM4.09984 4.59973H11.8999V13.3327C11.8999 13.3695 11.87 13.3994 11.8332 13.3994H4.16651C4.12969 13.3994 4.09984 13.3695 4.09984 13.3327V4.59973ZM8.73334 10.9997V6.99973H9.93334V10.9997H8.73334ZM6.06667 6.99973V10.9997H7.26667V6.99973H6.06667Z" fill="#171719"/>
</mask>
<g mask="url(#mask0_2815_2669)">
<rect width="16" height="16" fill="#171719"/>
</g>
</svg>
