<svg width="24" height="24" viewBox="0 0 24 24" fill="none" xmlns="http://www.w3.org/2000/svg">
<path fill-rule="evenodd" clip-rule="evenodd" d="M8.99976 3.39961H14.9998V1.59961H8.99976V3.39961ZM20.9997 6.9H19.6503L19.6503 19.4298C19.6504 19.6841 19.6504 19.9261 19.6337 20.1301C19.6156 20.3525 19.5732 20.6076 19.4433 20.8626C19.2611 21.2201 18.9704 21.5108 18.6129 21.6929C18.358 21.8228 18.1028 21.8652 17.8804 21.8834C17.6765 21.9001 17.4345 21.9 17.1802 21.9H6.82058C6.56628 21.9 6.3242 21.9001 6.12026 21.8834C5.89785 21.8652 5.64274 21.8228 5.38776 21.6929C5.03026 21.5108 4.73959 21.2201 4.55743 20.8626C4.42752 20.6076 4.38513 20.3525 4.36696 20.1301C4.35029 19.9261 4.35032 19.6841 4.35034 19.4298L4.35035 6.9H2.99976V5.1H20.9997V6.9ZM6.14951 6.9H17.8495V19.9994C17.8495 20.0547 17.8047 20.0994 17.7495 20.0994H6.24951C6.19429 20.0994 6.14951 20.0547 6.14951 19.9994V6.9ZM13.0998 16.5V10.5H14.8998V16.5H13.0998ZM9.09976 10.5V16.5H10.8998V10.5H9.09976Z" fill="#E1E2E4"/>
</svg>
