<svg width="66" height="26" viewBox="0 0 66 26" fill="none" xmlns="http://www.w3.org/2000/svg">
<g clip-path="url(#clip0_5853_22305)">
<path d="M43.0274 15.8523V18.6256H48.6241V20.5635H43.0274V23.6041H48.6241V25.5752H40.889V13.8807H48.6241V15.8523H43.0274ZM36.0875 25.826C38.0255 25.826 39.7463 24.456 39.7463 21.733V13.8807H37.6581V21.733C37.6581 23.3202 36.9394 23.8715 36.0875 23.8715C35.2357 23.8715 34.5004 23.3202 34.5004 21.733V13.8807H32.4122V21.733C32.4122 24.4565 34.0993 25.826 36.0875 25.826ZM28.758 25.4638C29.315 25.3192 29.8161 25.1238 30.2617 24.8793C30.7073 24.6342 31.0639 24.3611 31.3307 24.0606L30.2617 22.3398C30.0166 22.5849 29.7435 22.802 29.443 22.9911C29.1533 23.1693 28.8363 23.3087 28.4906 23.4087C28.1455 23.5093 27.789 23.559 27.4211 23.559C26.8532 23.559 26.3298 23.4698 25.8505 23.2916C25.3826 23.1025 24.9764 22.8351 24.6307 22.4894C24.2965 22.1444 24.0348 21.7319 23.8457 21.2531C23.6675 20.7743 23.5783 20.2396 23.5783 19.6494C23.5783 19.0592 23.6732 18.5467 23.8623 18.0788C24.0514 17.6 24.3079 17.1875 24.6307 16.8425C24.9649 16.4974 25.3546 16.23 25.8002 16.0403C26.2567 15.8512 26.7412 15.7564 27.2537 15.7564C27.5988 15.7564 27.933 15.8124 28.2558 15.9232C28.59 16.0232 28.9071 16.1791 29.2082 16.3911C29.5201 16.5916 29.8206 16.8425 30.1103 17.143L31.4969 15.6227C31.1964 15.233 30.8233 14.8931 30.3777 14.6034C29.9321 14.3029 29.4419 14.0687 28.9077 13.9018C28.3729 13.735 27.8216 13.651 27.2537 13.651C26.4184 13.651 25.6443 13.8013 24.9312 14.1024C24.2182 14.4029 23.5949 14.8262 23.0601 15.3719C22.5254 15.9175 22.1077 16.5528 21.8072 17.2767C21.5067 18.0005 21.3564 18.7861 21.3564 19.6322C21.3564 20.4784 21.4958 21.3251 21.7741 22.0712C22.0637 22.8065 22.4648 23.447 22.9767 23.9926C23.4892 24.5274 24.096 24.9393 24.7975 25.229C25.4991 25.5186 26.2733 25.6632 27.12 25.6632C27.6656 25.6632 28.2112 25.5963 28.7574 25.4626L28.758 25.4638ZM66.129 2.48273V0.511654H58.3933V12.2061H66.129V10.2351H60.5317V7.19446H66.129V5.25652H60.5317V2.48273H66.129ZM54.1974 11.9279C54.8436 11.6719 55.4058 11.3154 55.8851 10.859C56.3753 10.4025 56.7541 9.86199 57.0209 9.23867C57.2883 8.60392 57.422 7.90234 57.422 7.13333C57.422 7.03335 57.4163 6.91623 57.4054 6.78254C57.4054 6.63799 57.3997 6.49287 57.3889 6.34833C57.3774 6.19236 57.3609 6.05295 57.3386 5.93069H52.0424V7.86863H55.5006L55.2001 7.51783V7.8852C55.2001 8.21942 55.1224 8.53137 54.9664 8.82103C54.8219 9.11069 54.6099 9.36665 54.3317 9.58946C54.0535 9.80085 53.7358 9.96825 53.3793 10.0905C53.0228 10.2128 52.6389 10.2745 52.2264 10.2745C51.6807 10.2745 51.1626 10.1745 50.6724 9.97397C50.1936 9.76258 49.7702 9.47291 49.4029 9.10498C49.0355 8.73762 48.7458 8.30855 48.5339 7.81835C48.3333 7.32815 48.2334 6.81053 48.2334 6.26434C48.2334 5.71815 48.3339 5.17311 48.5339 4.69377C48.7344 4.21499 49.0069 3.79735 49.3526 3.44085C49.7091 3.08434 50.121 2.8061 50.5889 2.60557C51.0677 2.40503 51.5859 2.30505 52.1424 2.30505C52.5212 2.30505 52.8885 2.36047 53.245 2.47188C53.6015 2.58328 53.9409 2.73926 54.2643 2.93979C54.5985 3.14033 54.9213 3.39114 55.2333 3.69166L56.6033 2.25477C56.3028 1.87598 55.924 1.53661 55.4669 1.23553C55.0104 0.935007 54.498 0.700764 53.9301 0.533936C53.3622 0.367109 52.772 0.283124 52.1589 0.283124C51.29 0.283124 50.477 0.433383 49.72 0.734472C48.9738 1.03499 48.3219 1.45834 47.7654 2.00396C47.2084 2.53872 46.7742 3.17347 46.4622 3.90876C46.1617 4.63263 46.0109 5.41821 46.0109 6.26434C46.0109 7.11048 46.1612 7.91833 46.4622 8.65363C46.7628 9.3775 47.1861 10.0122 47.7317 10.5584C48.2888 11.1041 48.9401 11.5331 49.6862 11.8451C50.4324 12.1456 51.2454 12.2964 52.1252 12.2964C52.8714 12.2964 53.5621 12.1741 54.1969 11.929L54.1974 11.9279ZM41.3809 0.283124C39.3927 0.283124 37.7055 1.6366 37.7055 4.35954V12.2284H46.1257V10.3236H45.0396V4.35897C45.0396 1.63602 43.3188 0.282553 41.3809 0.282553V0.283124ZM41.4951 2.22106C42.347 2.22106 43.0657 2.78896 43.0657 4.35954V10.3242H39.908V4.35954C39.908 2.78896 40.6262 2.22106 41.4951 2.22106ZM29.5436 2.44959H32.4173V12.2061H34.5055V2.44959H37.3622V0.511654H29.5436V2.44959ZM29.1436 9.04727C29.1436 5.63931 24.1982 5.20453 24.1982 3.33344C24.1982 2.63185 24.733 2.21421 25.418 2.21421C26.203 2.21421 26.788 2.68212 26.972 3.73451L28.9265 3.15004C28.5757 1.36236 27.3394 0.226562 25.3512 0.226562C23.5303 0.226562 22.0935 1.36236 22.0935 3.28373C22.0935 6.558 27.0389 7.05963 27.0389 9.06441C27.0389 9.96654 26.3373 10.4847 25.5186 10.4847C24.5496 10.4847 23.848 9.84999 23.6475 8.74733L21.6427 9.34893C22.0603 11.1698 23.4138 12.4564 25.5688 12.4564C27.5571 12.4564 29.1442 11.1869 29.1442 9.04842L29.1436 9.04727Z" fill="white"/>
<path d="M15.4871 21.7393V8.961C15.4871 3.12547 11.8071 0.226562 7.66102 0.226562C3.5149 0.226562 -0.202148 3.12547 -0.202148 8.961V25.822H17.8352V21.7404L15.4871 21.7393ZM4.26505 19.6911C8.2792 15.4678 8.43574 8.18114 8.09066 3.14376L9.86234 21.7393L4.26505 19.6911Z" fill="url(#paint0_linear_5853_22305)"/>
</g>
<defs>
<linearGradient id="paint0_linear_5853_22305" x1="-1.66703" y1="2.41303" x2="16.3709" y2="28.1736" gradientUnits="userSpaceOnUse">
<stop stop-color="#750012"/>
<stop offset="0.25" stop-color="#B81716"/>
<stop offset="0.48" stop-color="#EB1F20"/>
<stop offset="0.72" stop-color="#ED5700"/>
<stop offset="0.909497" stop-color="#FF9202"/>
</linearGradient>
<clipPath id="clip0_5853_22305">
<rect width="65.92" height="25.6" fill="white" transform="translate(0 0.199219)"/>
</clipPath>
</defs>
</svg>
